<?xml version="1.0" encoding="utf-8"?>
<!-- Generator: Adobe Illustrator 22.1.0, SVG Export Plug-In . SVG Version: 6.00 Build 0)  -->
<svg version="1.1" id="Layer_1" xmlns="http://www.w3.org/2000/svg" xmlns:xlink="http://www.w3.org/1999/xlink" x="0px" y="0px"
	 viewBox="0 0 122.5 117.9" style="enable-background:new 0 0 122.5 117.9;" xml:space="preserve">
<style type="text/css">
	.st0{fill:#FFFFFF;stroke:#FFFFFF;stroke-width:3.5532;stroke-miterlimit:10;}
	.st1{fill:#FFFFFF;stroke:#FFFFFF;stroke-width:1.9503;stroke-miterlimit:10;}
	.st2{fill:#FFFFFF;stroke:#FFFFFF;stroke-width:3.7954;stroke-miterlimit:10;}
	.st3{fill:#FFFFFF;stroke:#FFFFFF;stroke-width:2.9701;stroke-miterlimit:10;}
	.st4{fill:#FFFFFF;stroke:#FFFFFF;stroke-width:6.0299;stroke-miterlimit:10;}
</style>
<path d="M-0.5,64.6V5.4c0-3.3,2.7-5.9,5.9-5.9h111.3c3.3,0,5.9,2.7,5.9,5.9v106.6c0,3.3-2.7,5.9-5.9,5.9H5.4c-3.3,0-5.9-2.7-5.9-5.9
	V73.6"/>
<path class="st0" d="M34.3,95.5H33c-1,0-1.9-0.8-1.9-1.9V18.9c0-1,0.8-1.9,1.9-1.9h1.3c1,0,1.9,0.8,1.9,1.9v74.7
	C36.2,94.6,35.4,95.5,34.3,95.5z"/>
<path class="st1" d="M29.1,104L29.1,104c0-1.4,1.1-2.5,2.5-2.5h18.6c1.4,0,2.5,1.1,2.5,2.5l0,0c0,1.4-1.1,2.5-2.5,2.5H31.7
	C30.3,106.5,29.1,105.4,29.1,104z"/>
<path class="st2" d="M49.7,105.5L49.7,105.5c-1.4,0-2.5-1.1-2.5-2.5V18.6c0-1.4,1.1-2.5,2.5-2.5h0c1.4,0,2.5,1.1,2.5,2.5V103
	C52.3,104.4,51.1,105.5,49.7,105.5z"/>
<path class="st3" d="M47.2,17.8v-0.4c0-1.3,1-2.3,2.3-2.3h50.2c1.3,0,2.3,1,2.3,2.3v0.4c0,1.3-1,2.3-2.3,2.3H49.5
	C48.3,20.1,47.2,19.1,47.2,17.8z"/>
<path class="st4" d="M65.3,37.3V34c0-0.5,0.4-0.9,0.9-0.9h32.3c1.4,0,2.5,1.1,2.5,2.5v0c0,1.4-1.1,2.5-2.5,2.5H66.2
	C65.7,38.2,65.3,37.8,65.3,37.3z"/>
<path class="st4" d="M99.2,33.9L99.2,33.9c1.4,0,2.5,1.1,2.5,2.5v22.4c0,1.4-1.1,2.5-2.5,2.5l0,0c-1.4,0-2.5-1.1-2.5-2.5V36.4
	C96.7,35,97.9,33.9,99.2,33.9z"/>
<path class="st4" d="M65.3,60.9v-4.2c0-0.2,0.2-0.4,0.4-0.4h32.8c1.4,0,2.5,1.1,2.5,2.5v0c0,1.4-1.1,2.5-2.5,2.5H65.7
	C65.5,61.3,65.3,61.1,65.3,60.9z"/>
</svg>
